<?xml version="1.0" encoding="UTF-8" standalone="no"?>
<svg
   xmlns:dc="http://purl.org/dc/elements/1.1/"
   xmlns:cc="http://creativecommons.org/ns#"
   xmlns:rdf="http://www.w3.org/1999/02/22-rdf-syntax-ns#"
   xmlns:svg="http://www.w3.org/2000/svg"
   xmlns="http://www.w3.org/2000/svg"
   xmlns:sodipodi="http://sodipodi.sourceforge.net/DTD/sodipodi-0.dtd"
   xmlns:inkscape="http://www.inkscape.org/namespaces/inkscape"
   viewBox="0 0 440.98 128.9"
   version="1.1"
   id="svg48"
   sodipodi:docname="horizon-eda-logo_with_text_logo_w_text_on_dark.svg"
   inkscape:version="0.92.5 (2060ec1f9f, 2020-04-08)">
  <metadata
     id="metadata52">
    <rdf:RDF>
      <cc:Work
         rdf:about="">
        <dc:format>image/svg+xml</dc:format>
        <dc:type
           rdf:resource="http://purl.org/dc/dcmitype/StillImage" />
        <dc:title>horizon-eda-logo_with_text</dc:title>
      </cc:Work>
    </rdf:RDF>
  </metadata>
  <sodipodi:namedview
     pagecolor="#ffffff"
     bordercolor="#666666"
     borderopacity="1"
     objecttolerance="10"
     gridtolerance="10"
     guidetolerance="10"
     inkscape:pageopacity="0"
     inkscape:pageshadow="2"
     inkscape:window-width="1916"
     inkscape:window-height="785"
     id="namedview50"
     showgrid="false"
     inkscape:zoom="0.79368677"
     inkscape:cx="-147.41332"
     inkscape:cy="64.449997"
     inkscape:window-x="0"
     inkscape:window-y="39"
     inkscape:window-maximized="0"
     inkscape:current-layer="Layer_1" />
  <defs
     id="defs7">
    <style
       id="style2">.cls-1{fill:none;}.cls-2{clip-path:url(#clip-path);}.cls-3{fill:#e5e5e5;}.cls-4{fill:#292929;}.cls-5{fill:#94ccef;}.cls-6{font-size:45px;font-family:Roboto-Medium, Roboto;font-weight:500;}.cls-6,.cls-9{fill:#e4e5e5;}.cls-7{letter-spacing:-0.01em;}.cls-8{letter-spacing:-0.01em;}.cls-9{font-size:35px;font-family:Roboto-Light, Roboto;font-weight:300;}.cls-10{letter-spacing:-0.01em;}.cls-11{letter-spacing:-0.01em;}</style>
    <clipPath
       id="clip-path">
      <rect
         class="cls-1"
         y="13.65"
         width="109.24"
         height="109.24"
         id="rect4" />
    </clipPath>
  </defs>
  <title
     id="title9">horizon-eda-logo_with_text</title>
  <g
     id="Layer_1"
     data-name="Layer 1">
    <g
       class="cls-2"
       clip-path="url(#clip-path)"
       id="g25">
      <g
         class="cls-2"
         clip-path="url(#clip-path)"
         id="g23">
        <path
           class="cls-3"
           d="M109.24,68.27a54.62,54.62,0,1,0-54.62,54.62,54.61,54.61,0,0,0,54.62-54.62"
           id="path11" />
        <path
           class="cls-4"
           d="M54.7,18.47A49.57,49.57,0,1,0,104.26,68,49.57,49.57,0,0,0,54.7,18.47"
           id="path13" />
        <path
           class="cls-5"
           d="M54.62,47.41A11.64,11.64,0,1,1,43,59.05,11.64,11.64,0,0,1,54.62,47.41"
           id="path15" />
        <path
           class="cls-3"
           d="M95,81.65H14.23q.63,1.88,1.41,3.69h78c.53-1.21,1-2.44,1.42-3.69"
           id="path17" />
        <path
           class="cls-3"
           d="M91.5,89.48H17.74a43.16,43.16,0,0,0,4.18,6h65.4a41.76,41.76,0,0,0,4.18-6"
           id="path19" />
        <path
           class="cls-3"
           d="M26.91,100.55a42.54,42.54,0,0,0,55.41,0Z"
           id="path21" />
      </g>
    </g>
    <g
       aria-label="Horizon EDA"
       transform="translate(130.53 67)"
       style="font-weight:500;font-size:45px;font-family:Roboto-Medium, Roboto;fill:#e4e5e5"
       id="text35">
      <path
         d="m 28.652344,0 h -5.53711 V -14.216309 H 8.8110352 V 0 H 3.2519531 v -31.992187 h 5.5590821 v 13.315429 H 23.115234 v -13.315429 h 5.53711 z"
         style="font-weight:500;font-size:45px;font-family:Roboto-Medium, Roboto;fill:#e4e5e5"
         id="path862" />
      <path
         d="m 33.706055,-12.106934 q 0,-3.493652 1.384277,-6.284179 1.384277,-2.8125 3.88916,-4.306641 2.504883,-1.516113 5.756836,-1.516113 4.812012,0 7.800293,3.098144 3.010254,3.098145 3.251953,8.217774 l 0.02197,1.252441 q 0,3.5156252 -1.362305,6.2841799 -1.340332,2.7685547 -3.867187,4.2846679 -2.504883,1.51611333 -5.800782,1.51611333 -5.031738,0 -8.063964,-3.33984373 -3.010254,-3.3618164 -3.010254,-8.9428714 z m 5.339355,0.461426 q 0,3.6694338 1.516113,5.7568361 1.516114,2.0654297 4.21875,2.0654297 2.702637,0 4.196778,-2.109375 1.516113,-2.109375 1.516113,-6.1743168 0,-3.603515 -1.560059,-5.71289 -1.538085,-2.109375 -4.196777,-2.109375 -2.614746,0 -4.152832,2.087402 -1.538086,2.06543 -1.538086,6.196289 z"
         style="font-weight:500;font-size:45px;font-family:Roboto-Medium, Roboto;fill:#e4e5e5"
         id="path864" />
      <path
         d="m 72.773437,-18.896484 q -1.054687,-0.175782 -2.175292,-0.175782 -3.669434,0 -4.943848,2.8125 V 0 h -5.339356 v -23.774414 h 5.097657 l 0.131836,2.658691 q 1.933593,-3.098144 5.361328,-3.098144 1.142578,0 1.889648,0.307617 z"
         style="font-weight:500;font-size:45px;font-family:Roboto-Medium, Roboto;fill:#e4e5e5"
         id="path866" />
      <path
         d="m 81.826172,0 h -5.339356 v -23.774414 h 5.339356 z m -5.668945,-29.94873 q 0,-1.230469 0.769043,-2.043457 0.791015,-0.812989 2.24121,-0.812989 1.450196,0 2.241211,0.812989 0.791016,0.812988 0.791016,2.043457 0,1.208496 -0.791016,2.021484 -0.791015,0.791016 -2.241211,0.791016 -1.450195,0 -2.24121,-0.791016 -0.769043,-0.812988 -0.769043,-2.021484 z"
         style="font-weight:500;font-size:45px;font-family:Roboto-Medium, Roboto;fill:#e4e5e5"
         id="path868" />
      <path
         d="M 93.167503,-4.2626953 H 105.82375 V 0 H 86.531761 V -3.4936523 L 98.594749,-19.467773 H 86.751488 v -4.306641 h 18.610842 v 3.383789 z"
         style="letter-spacing:-0.01em"
         id="path870" />
      <path
         d="m 108.89584,-12.106934 q 0,-3.493652 1.38428,-6.284179 1.38428,-2.8125 3.88916,-4.306641 2.50488,-1.516113 5.75684,-1.516113 4.81201,0 7.80029,3.098144 3.01025,3.098145 3.25195,8.217774 l 0.022,1.252441 q 0,3.5156252 -1.36231,6.2841799 -1.34033,2.7685547 -3.86719,4.2846679 -2.50488,1.51611333 -5.80078,1.51611333 -5.03174,0 -8.06396,-3.33984373 -3.01026,-3.3618164 -3.01026,-8.9428714 z m 5.33936,0.461426 q 0,3.6694338 1.51611,5.7568361 1.51612,2.0654297 4.21875,2.0654297 2.70264,0 4.19678,-2.109375 1.51611,-2.109375 1.51611,-6.1743168 0,-3.603515 -1.56006,-5.71289 -1.53808,-2.109375 -4.19677,-2.109375 -2.61475,0 -4.15284,2.087402 -1.53808,2.06543 -1.53808,6.196289 z"
         style=""
         id="path872" />
      <path
         d="m 140.47055,-23.774414 0.15381,2.746582 q 2.63672,-3.186035 6.92139,-3.186035 7.42675,0 7.55859,8.503418 V 0 h -5.33936 v -15.402832 q 0,-2.263184 -0.98877,-3.339844 -0.96679,-1.098633 -3.18603,-1.098633 -3.22998,0 -4.81201,2.922364 V 0 h -5.33936 v -23.774414 z"
         style=""
         id="path874" />
      <path
         d="m 190.96371,-14.282227 h -13.13964 v 9.8437504 h 15.35888 V 0 h -20.91797 v -31.992187 h 20.76416 v 4.482421 h -15.20507 v 8.833008 h 13.13964 z"
         style=""
         id="path876" />
      <path
         d="m 198.67195,0 v -31.992187 h 9.44824 q 4.24073,0 7.51465,1.889648 3.2959,1.889648 5.09766,5.361328 1.80176,3.47168 1.80176,7.954102 v 1.604004 q 0,4.548339 -1.82373,7.9980464 -1.80176,3.449707 -5.16358,5.3173828 Q 212.20711,0 207.87849,0 Z m 5.55908,-27.509766 v 23.0712894 h 3.62549 q 4.37256,0 6.70166,-2.7246093 2.35108,-2.7465821 2.39502,-7.8662111 v -1.779785 q 0,-5.20752 -2.26318,-7.954102 -2.26319,-2.746582 -6.56983,-2.746582 z"
         style="letter-spacing:-0.01em"
         id="path878" />
      <path
         d="M 245.67967,-7.4487305 H 233.28709 L 230.69432,0 h -5.77881 l 12.08496,-31.992187 h 4.9878 L 254.0952,0 h -5.80078 z m -10.83252,-4.4824215 h 9.27246 l -4.63623,-13.271485 z"
         style=""
         id="path880" />
    </g>
    <g
       aria-label="a free EDA package"
       transform="translate(130.53 100.1)"
       style="font-weight:300;font-size:35px;font-family:Roboto-Light, Roboto;fill:#e4e5e5"
       id="text45">
      <path
         d="m 14.338379,0 q -0.307617,-0.87158203 -0.393066,-2.5805664 -1.076661,1.4013672 -2.751465,2.17041015 -1.6577152,0.75195313 -3.5205082,0.75195313 -2.6660156,0 -4.3237304,-1.48681638 -1.640625,-1.4868164 -1.640625,-3.7597657 0,-2.7001953 2.2387695,-4.2724609 2.2558594,-1.5722659 6.2719731,-1.5722659 h 3.708496 v -2.102051 q 0,-1.982421 -1.230469,-3.110351 -1.213379,-1.14502 -3.5546876,-1.14502 -2.1362305,0 -3.5375977,1.09375 -1.4013671,1.09375 -1.4013671,2.631836 l -2.0507813,-0.01709 q 0,-2.204589 2.0507813,-3.811035 2.0507812,-1.623535 5.0415039,-1.623535 3.0932615,0 4.8706055,1.555176 1.794434,1.538086 1.845703,4.306641 v 8.7499996 q 0,2.6831055 0.563965,4.01611327 V 0 Z M 7.9125977,-1.4697266 q 2.0507812,0 3.6572263,-0.9912109 1.623535,-0.9912109 2.358399,-2.6489258 v -4.0673828 h -3.657227 q -3.0590819,0.03418 -4.7851562,1.1279297 -1.7260742,1.0766602 -1.7260742,2.9736328 0,1.5551758 1.1450196,2.5805664 1.1621093,1.0253906 3.0078125,1.0253906 z"
         style="font-weight:300;font-size:35px;font-family:Roboto-Light, Roboto;fill:#e4e5e5"
         id="path883" />
      <path
         d="m 31.394043,0 v -16.816406 h -3.059082 v -1.674805 h 3.059082 v -2.238769 q 0,-2.836915 1.435547,-4.357911 1.452637,-1.520996 4.033203,-1.520996 1.162109,0 2.17041,0.290528 l -0.153808,1.708984 q -0.854493,-0.205078 -1.862793,-0.205078 -1.691895,0 -2.631836,1.05957 -0.939942,1.042481 -0.939942,2.973633 v 2.290039 h 4.40918 v 1.674805 h -4.40918 V 0 Z"
         style="font-weight:300;font-size:35px;font-family:Roboto-Light, Roboto;fill:#e4e5e5"
         id="path885" />
      <path
         d="m 50.040939,-16.748047 q -0.649414,-0.119629 -1.384277,-0.119629 -1.914063,0 -3.24707,1.07666 -1.315918,1.059571 -1.879883,3.093262 V 0 h -2.033692 v -18.491211 h 1.999512 l 0.03418,2.939453 q 1.623535,-3.28125 5.212402,-3.28125 0.854492,0 1.350098,0.222168 z"
         style="letter-spacing:-0.01em"
         id="path887" />
      <path
         d="m 60.246658,0.34179688 q -2.358398,0 -4.272461,-1.16210938 -1.896972,-1.1621094 -2.956543,-3.2299805 -1.05957,-2.0849609 -1.05957,-4.6655273 v -0.7348633 q 0,-2.6660154 1.025391,-4.8022464 1.04248,-2.13623 2.888183,-3.349609 1.845703,-1.230469 3.999024,-1.230469 3.366699,0 5.332031,2.307129 1.982422,2.290039 1.982422,6.271973 v 1.1450193 H 53.991776 v 0.3930664 q 0,3.1445312 1.794433,5.246582 1.811524,2.084961 4.545899,2.084961 1.640625,0 2.888183,-0.5981446 1.264649,-0.5981445 2.290039,-1.9140625 l 1.281738,0.9741211 q -2.255859,3.26416018 -6.54541,3.26416018 z M 59.870682,-17.089844 q -2.307129,0 -3.896485,1.691895 -1.572265,1.691894 -1.914062,4.545898 h 11.091308 v -0.222168 q -0.08545,-2.666015 -1.520996,-4.34082 -1.435546,-1.674805 -3.759765,-1.674805 z"
         style=""
         id="path889" />
      <path
         d="m 78.327713,0.34179688 q -2.358398,0 -4.272461,-1.16210938 -1.896973,-1.1621094 -2.956543,-3.2299805 -1.05957,-2.0849609 -1.05957,-4.6655273 v -0.7348633 q 0,-2.6660154 1.02539,-4.8022464 1.042481,-2.13623 2.888184,-3.349609 1.845703,-1.230469 3.999023,-1.230469 3.3667,0 5.332032,2.307129 1.982422,2.290039 1.982422,6.271973 v 1.1450193 H 72.07283 v 0.3930664 q 0,3.1445312 1.794434,5.246582 1.811523,2.084961 4.545898,2.084961 1.640625,0 2.888184,-0.5981446 1.264648,-0.5981445 2.290039,-1.9140625 l 1.281738,0.9741211 q -2.255859,3.26416018 -6.54541,3.26416018 z M 77.951736,-17.089844 q -2.307128,0 -3.896484,1.691895 -1.572266,1.691894 -1.914062,4.545898 h 11.091308 v -0.222168 q -0.08545,-2.666015 -1.520996,-4.34082 -1.435547,-1.674805 -3.759766,-1.674805 z"
         style=""
         id="path891" />
      <path
         d="m 111.97762,-11.928711 h -11.63819 v 10.1513673 h 13.38135 V 0 H 98.237381 v -24.882812 h 15.397949 v 1.794433 h -13.2959 v 9.382324 h 11.63819 z"
         style=""
         id="path893" />
      <path
         d="m 118.29453,0 v -24.882812 h 6.95557 q 3.05908,0 5.48584,1.401367 2.42676,1.384277 3.77685,3.981933 1.36719,2.597657 1.36719,5.913086 v 2.290039 q 0,3.3325198 -1.3501,5.9130862 -1.35009,2.5805664 -3.81103,3.9819336 Q 128.275,0 125.09629,0 Z m 2.10205,-23.088379 v 21.3110353 h 4.7168 q 3.93066,0 6.30615,-2.5976563 2.37549,-2.6147461 2.37549,-7.058105 v -2.1875 q 0,-4.289551 -2.34131,-6.870118 -2.34131,-2.580566 -6.16943,-2.597656 z"
         style="letter-spacing:-0.01em"
         id="path895" />
      <path
         d="M 154.33714,-6.9726562 H 143.04076 L 140.47728,0 h -2.20459 l 9.4165,-24.882812 h 1.99952 L 159.10521,0 h -2.1875 z m -10.64697,-1.7944336 h 9.98047 L 148.6804,-22.319336 Z"
         style=""
         id="path897" />
      <path
         d="m 185.66283,-9.0576172 q 0,4.3237305 -1.91407,6.8701172 -1.91406,2.52929688 -5.12695,2.52929688 -3.79394,0 -5.81055,-2.66601568 V 7.109375 h -2.03369 v -25.600586 h 1.89698 l 0.10253,2.614746 q 1.99952,-2.956543 5.79346,-2.956543 3.31543,0 5.19531,2.512207 1.89698,2.512207 1.89698,6.9726565 z m -2.05078,-0.3588867 q 0,-3.5375981 -1.45264,-5.5883791 -1.45264,-2.050781 -4.05029,-2.050781 -1.87989,0 -3.22998,0.905762 -1.3501,0.905761 -2.06788,2.631836 v 8.8696285 q 0.73487,1.5893555 2.10205,2.4267578 1.36719,0.8374024 3.22999,0.8374024 2.58056,0 4.01611,-2.0507813 1.45264,-2.0678711 1.45264,-5.9814453 z"
         style=""
         id="path899" />
      <path
         d="m 201.864,0 q -0.30762,-0.87158203 -0.39307,-2.5805664 -1.07666,1.4013672 -2.75146,2.17041015 -1.65772,0.75195313 -3.52051,0.75195313 -2.66602,0 -4.32373,-1.48681638 -1.64063,-1.4868164 -1.64063,-3.7597657 0,-2.7001953 2.23877,-4.2724609 2.25586,-1.5722659 6.27198,-1.5722659 h 3.70849 v -2.102051 q 0,-1.982421 -1.23047,-3.110351 -1.21338,-1.14502 -3.55468,-1.14502 -2.13623,0 -3.5376,1.09375 -1.40137,1.09375 -1.40137,2.631836 l -2.05078,-0.01709 q 0,-2.204589 2.05078,-3.811035 2.05078,-1.623535 5.0415,-1.623535 3.09327,0 4.87061,1.555176 1.79443,1.538086 1.8457,4.306641 v 8.7499996 q 0,2.6831055 0.56397,4.01611327 V 0 Z m -6.42578,-1.4697266 q 2.05078,0 3.65722,-0.9912109 1.62354,-0.9912109 2.3584,-2.6489258 v -4.0673828 h -3.65722 q -3.05909,0.03418 -4.78516,1.1279297 -1.72607,1.0766602 -1.72607,2.9736328 0,1.5551758 1.14501,2.5805664 1.16211,1.0253906 3.00782,1.0253906 z"
         style=""
         id="path901" />
      <path
         d="m 215.77513,-1.3842773 q 2.13623,0 3.57178,-1.1962891 1.45264,-1.2133789 1.57226,-3.1274414 h 1.96534 q -0.0855,1.6918945 -1.05957,3.0932617 -0.97413,1.3842774 -2.59766,2.17041016 -1.60645,0.78613282 -3.45215,0.78613282 -3.64014,0 -5.77637,-2.52929688 -2.11914,-2.5292969 -2.11914,-6.8017578 v -0.6152344 q 0,-2.7343748 0.95703,-4.8364258 0.95704,-2.102051 2.73438,-3.24707 1.79443,-1.14502 4.18701,-1.14502 3.04199,0 5.00733,1.811524 1.98242,1.811523 2.11914,4.768066 h -1.96534 q -0.13671,-2.17041 -1.57226,-3.503418 -1.41846,-1.333008 -3.58887,-1.333008 -2.76855,0 -4.30664,1.999512 -1.521,1.999512 -1.521,5.6054687 v 0.5981445 q 0,3.5375977 1.521,5.5200196 1.53809,1.9824219 4.32373,1.9824219 z"
         style=""
         id="path903" />
      <path
         d="m 231.36107,-9.3139648 -2.34131,2.2558593 V 0 h -2.05078 v -26.25 h 2.05078 v 16.7993164 l 1.93115,-2.0849614 7.0752,-6.955566 h 2.58056 l -7.84423,7.792969 L 241.29027,0 h -2.44385 z"
         style=""
         id="path905" />
      <path
         d="m 255.78246,0 q -0.30762,-0.87158203 -0.39307,-2.5805664 -1.07666,1.4013672 -2.75147,2.17041015 -1.65771,0.75195313 -3.5205,0.75195313 -2.66602,0 -4.32373,-1.48681638 -1.64063,-1.4868164 -1.64063,-3.7597657 0,-2.7001953 2.23877,-4.2724609 2.25586,-1.5722659 6.27197,-1.5722659 h 3.7085 v -2.102051 q 0,-1.982421 -1.23047,-3.110351 -1.21338,-1.14502 -3.55469,-1.14502 -2.13623,0 -3.53759,1.09375 -1.40137,1.09375 -1.40137,2.631836 l -2.05078,-0.01709 q 0,-2.204589 2.05078,-3.811035 2.05078,-1.623535 5.0415,-1.623535 3.09326,0 4.87061,1.555176 1.79443,1.538086 1.8457,4.306641 v 8.7499996 q 0,2.6831055 0.56397,4.01611327 V 0 Z m -6.42579,-1.4697266 q 2.05079,0 3.65723,-0.9912109 1.62354,-0.9912109 2.3584,-2.6489258 v -4.0673828 h -3.65723 q -3.05908,0.03418 -4.78515,1.1279297 -1.72608,1.0766602 -1.72608,2.9736328 0,1.5551758 1.14502,2.5805664 1.16211,1.0253906 3.00781,1.0253906 z"
         style=""
         id="path907" />
      <path
         d="m 262.03734,-9.4165039 q 0,-4.3408201 1.91406,-6.8701171 1.93115,-2.546387 5.22949,-2.546387 3.77686,0 5.74219,3.007813 l 0.10254,-2.666016 h 1.91406 v 18.11523444 q 0,3.57177736 -1.99951,5.65673826 -1.99951,2.084961 -5.41748,2.084961 -1.93115,0 -3.69141,-0.8715821 -1.74316,-0.8544922 -2.75146,-2.290039 l 1.14502,-1.2304688 q 2.17041,2.6660156 5.16113,2.6660156 2.56348,0 3.99902,-1.5209961 1.43555,-1.5039062 1.48682,-4.18701167 V -2.3925781 q -1.96533,2.73437498 -5.7251,2.73437498 -3.21289,0 -5.16113,-2.56347658 -1.94824,-2.5634765 -1.94824,-6.9213867 z m 2.06787,0.3588867 q 0,3.5375977 1.41846,5.5883789 1.41845,2.0336914 3.99902,2.0336914 3.77686,0 5.34912,-3.383789 v -8.5961911 q -0.71777,-1.777344 -2.06787,-2.700196 -1.3501,-0.939941 -3.24707,-0.939941 -2.58057,0 -4.01611,2.033691 -1.43555,2.016602 -1.43555,5.9643558 z"
         style=""
         id="path909" />
      <path
         d="m 289.43236,0.34179688 q -2.3584,0 -4.27246,-1.16210938 -1.89698,-1.1621094 -2.95655,-3.2299805 -1.05957,-2.0849609 -1.05957,-4.6655273 v -0.7348633 q 0,-2.6660154 1.02539,-4.8022464 1.04248,-2.13623 2.88819,-3.349609 1.8457,-1.230469 3.99902,-1.230469 3.3667,0 5.33203,2.307129 1.98242,2.290039 1.98242,6.271973 v 1.1450193 h -13.19336 v 0.3930664 q 0,3.1445312 1.79444,5.246582 1.81152,2.084961 4.5459,2.084961 1.64062,0 2.88818,-0.5981446 1.26465,-0.5981445 2.29004,-1.9140625 l 1.28174,0.9741211 q -2.25586,3.26416018 -6.54541,3.26416018 z M 289.05638,-17.089844 q -2.30713,0 -3.89648,1.691895 -1.57227,1.691894 -1.91407,4.545898 h 11.09131 v -0.222168 q -0.0854,-2.666015 -1.52099,-4.34082 -1.43555,-1.674805 -3.75977,-1.674805 z"
         style=""
         id="path911" />
    </g>
  </g>
</svg>
