<svg xmlns="http://www.w3.org/2000/svg" xmlns:xlink="http://www.w3.org/1999/xlink" viewBox="0 0 440.98 128.9"><defs><style>.cls-1{fill:none;}.cls-2{clip-path:url(#clip-path);}.cls-3{fill:#e5e5e5;}.cls-4{fill:#292929;}.cls-5{fill:#94ccef;}.cls-6{font-size:45px;font-family:Roboto-Medium, Roboto;font-weight:500;}.cls-6,.cls-9{fill:#e4e5e5;}.cls-7{letter-spacing:-0.01em;}.cls-8{letter-spacing:-0.01em;}.cls-9{font-size:35px;font-family:Roboto-Light, Roboto;font-weight:300;}.cls-10{letter-spacing:-0.01em;}.cls-11{letter-spacing:-0.01em;}</style><clipPath id="clip-path"><rect class="cls-1" y="13.65" width="109.24" height="109.24"/></clipPath></defs><title>horizon-eda-logo_with_text</title><g id="Layer_1" data-name="Layer 1"><g class="cls-2"><g class="cls-2"><path class="cls-3" d="M109.24,68.27a54.62,54.62,0,1,0-54.62,54.62,54.61,54.61,0,0,0,54.62-54.62"/><path class="cls-4" d="M54.7,18.47A49.57,49.57,0,1,0,104.26,68,49.57,49.57,0,0,0,54.7,18.47"/><path class="cls-5" d="M54.62,47.41A11.64,11.64,0,1,1,43,59.05,11.64,11.64,0,0,1,54.62,47.41"/><path class="cls-3" d="M95,81.65H14.23q.63,1.88,1.41,3.69h78c.53-1.21,1-2.44,1.42-3.69"/><path class="cls-3" d="M91.5,89.48H17.74a43.16,43.16,0,0,0,4.18,6h65.4a41.76,41.76,0,0,0,4.18-6"/><path class="cls-3" d="M26.91,100.55a42.54,42.54,0,0,0,55.41,0Z"/></g></g><text class="cls-6" transform="translate(130.53 67)">Hori<tspan class="cls-7" x="84.73" y="0">z</tspan><tspan x="107.16" y="0">on E</tspan><tspan class="cls-8" x="195.42" y="0">D</tspan><tspan x="224.52" y="0">A</tspan></text><text class="cls-9" transform="translate(130.53 100.1)">a f<tspan class="cls-10" x="38.83" y="0">r</tspan><tspan x="50.42" y="0">ee E</tspan><tspan class="cls-11" x="115.15" y="0">D</tspan><tspan x="137.76" y="0">A package</tspan></text></g></svg>